<svg width="32" height="32" viewBox="0 0 32 32" fill="none" xmlns="http://www.w3.org/2000/svg">
<g clip-path="url(#clip0_4621_1449)">
<mask id="mask0_4621_1449" style="mask-type:luminance" maskUnits="userSpaceOnUse" x="0" y="0" width="32" height="32">
<path d="M32 0H0V32H32V0Z" fill="white"/>
</mask>
<g mask="url(#mask0_4621_1449)">
<path d="M32 5H0V27H32L25.5 16L32 5Z" fill="url(#paint0_linear_4621_1449)"/>
<path style="mix-blend-mode:multiply" d="M0 0V32C3.1005 29.6549 5.31973 23.3803 5.31973 16C5.31973 8.61972 3.1005 2.34507 0 0Z" fill="url(#paint1_radial_4621_1449)"/>
</g>
<path d="M18.385 13.2849H13.705V15.3549C13.905 15.1349 14.185 14.9549 14.545 14.8149C14.905 14.6749 15.295 14.6049 15.715 14.6049C16.465 14.6049 17.085 14.7749 17.575 15.1149C18.075 15.4549 18.44 15.8949 18.67 16.4349C18.9 16.9749 19.015 17.5599 19.015 18.1899C19.015 19.3599 18.685 20.2899 18.025 20.9799C17.365 21.6599 16.435 21.9999 15.235 21.9999C14.435 21.9999 13.74 21.8649 13.15 21.5949C12.56 21.3149 12.105 20.9299 11.785 20.4399C11.465 19.9499 11.29 19.3849 11.26 18.7449H13.765C13.825 19.0549 13.97 19.3149 14.2 19.5249C14.43 19.7249 14.745 19.8249 15.145 19.8249C15.615 19.8249 15.965 19.6749 16.195 19.3749C16.425 19.0749 16.54 18.6749 16.54 18.1749C16.54 17.6849 16.42 17.3099 16.18 17.0499C15.94 16.7899 15.59 16.6599 15.13 16.6599C14.79 16.6599 14.51 16.7449 14.29 16.9149C14.07 17.0749 13.925 17.2899 13.855 17.5599H11.38V11.0349H18.385V13.2849Z" fill="white"/>
</g>
<defs>
<linearGradient id="paint0_linear_4621_1449" x1="-15.1111" y1="11.0043" x2="30.9256" y2="16.6875" gradientUnits="userSpaceOnUse">
<stop stop-color="#FF1A00"/>
<stop offset="1" stop-color="#FF8000"/>
</linearGradient>
<radialGradient id="paint1_radial_4621_1449" cx="0" cy="0" r="1" gradientUnits="userSpaceOnUse" gradientTransform="translate(-2.26718 16.447) scale(8.02504 16.9321)">
<stop stop-color="#6B6B6B"/>
<stop offset="0.21" stop-color="#969696"/>
<stop offset="0.46" stop-color="#C3C3C3"/>
<stop offset="0.69" stop-color="#E4E4E4"/>
<stop offset="0.87" stop-color="#F8F8F8"/>
<stop offset="1" stop-color="white"/>
</radialGradient>
<clipPath id="clip0_4621_1449">
<rect width="32" height="32" fill="white"/>
</clipPath>
</defs>
</svg>
